<svg xmlns="http://www.w3.org/2000/svg" viewBox="0 0 24 24" fill="none" stroke="#cc38f5" stroke-width="2" stroke-linecap="round" stroke-linejoin="round"><path d="M5.8 11.3 2 22l10.7-3.79"/><path d="M4 3h.01"/><path d="M22 8h.01"/><path d="M15 2h.01"/><path d="M22 20h.01"/><path d="m22 2-2.24.75a2.9 2.9 0 0 0-1.96 3.12c.1.86-.57 1.63-1.45 1.63h-.38c-.86 0-1.6.6-1.76 1.44L14 10"/><path d="m22 13-1.99 1.16a2 2 0 0 1-2.66-.7l-.04-.06a2 2 0 0 0-3.62.4l-1.13 3.06"/><path d="m11 13.5 1 1.5"/><path d="m13 11.5 1 .5"/></svg>
